<?xml version="1.0" encoding="utf-8"?>
<!-- Generator: Adobe Illustrator 18.1.0, SVG Export Plug-In . SVG Version: 6.00 Build 0)  -->
<svg version="1.1" xmlns="http://www.w3.org/2000/svg" xmlns:xlink="http://www.w3.org/1999/xlink" x="0px" y="0px"
	 viewBox="0 0 850.39 850.39" enable-background="new 0 0 850.39 850.39" xml:space="preserve">
<g id="Calque_3" display="none">
	<rect id="background" x="87.205" y="81.814" display="inline" fill="#4E5D89" width="681.395" height="681.395"/>
</g>
<g id="Calque_1">
</g>
<g id="Calque_2">
</g>
<g id="Calque_4">
	<g>
		<g>
			<g>
				<path fill="#FAC400" d="M439.197,288.998c-0.762,0.363-2.053,0.973-3.72,1.767c-1.842-2.521-4.181-4.535-6.809-5.99
					c0.822-2.267,1.327-3.675,1.345-3.757c0.108-0.492-0.204-0.823-0.925-1.048c-0.091-0.029-1.026-0.365-2.56-0.924
					c-1.524-0.557-2.462-0.905-2.549-0.938c-0.692-0.295-1.141-0.239-1.382,0.205c-0.039,0.08-0.594,1.569-1.477,3.98
					c-2.635-0.337-5.357-0.188-8.02,0.511c-1.127-2.359-1.831-3.818-1.882-3.896c-0.277-0.419-0.728-0.428-1.394-0.073
					c-0.084,0.042-0.981,0.474-2.449,1.177c-1.469,0.698-2.373,1.124-2.458,1.162c-0.696,0.292-0.972,0.649-0.819,1.132
					c0.025,0.082,0.716,1.552,1.835,3.911c-2.365,1.736-4.277,3.915-5.702,6.36c-2.458-0.845-3.991-1.362-4.079-1.379
					c-0.495-0.098-0.818,0.222-1.029,0.944c-0.028,0.091-0.348,1.038-0.875,2.574c-0.533,1.536-0.863,2.48-0.895,2.568
					c-0.279,0.703-0.22,1.146,0.231,1.376c0.078,0.041,1.577,0.563,3.998,1.402c-0.42,2.776-0.309,5.657,0.427,8.471
					c-2.355,1.121-3.815,1.827-3.887,1.88c-0.423,0.277-0.434,0.727-0.079,1.393c0.045,0.083,0.477,0.982,1.178,2.451
					c0.694,1.472,1.117,2.374,1.157,2.462c0.288,0.691,0.645,0.971,1.127,0.819c0.085-0.027,1.556-0.717,3.914-1.83
					c1.558,2.128,3.472,3.893,5.615,5.265c-0.692,1.902-1.228,3.38-1.535,4.227c-0.19,0.52,0.098,0.954,0.816,1.213
					c0.084,0.032,0.194,0.075,0.288,0.103c1.988,0.725,3.573,1.308,4.616,1.689c0.092,0.028,0.203,0.073,0.288,0.101
					c0.714,0.263,1.214,0.118,1.404-0.405c0.295-0.808,0.804-2.192,1.459-3.974c3.062,0.6,6.279,0.531,9.415-0.296
					c0.803,1.673,1.418,2.961,1.782,3.725c0.238,0.501,0.751,0.599,1.439,0.269c0.079-0.038,0.188-0.088,0.274-0.131
					c1.007-0.482,2.529-1.208,4.439-2.119c0.088-0.038,0.194-0.09,0.274-0.131c0.692-0.326,0.937-0.785,0.698-1.285
					c-0.362-0.764-0.978-2.056-1.775-3.731c2.476-1.812,4.46-4.107,5.903-6.684c1.775,0.607,3.149,1.08,3.955,1.356
					c0.525,0.182,0.951-0.119,1.199-0.837c0.029-0.085,0.069-0.198,0.096-0.289c0.362-1.054,0.912-2.652,1.601-4.65
					c0.034-0.091,0.073-0.205,0.101-0.287c0.248-0.725,0.098-1.221-0.429-1.402c-0.816-0.281-2.208-0.757-4.006-1.383
					c0.368-2.676,0.231-5.442-0.48-8.151c1.675-0.798,2.965-1.413,3.727-1.775c0.505-0.24,0.598-0.749,0.274-1.438
					c-0.041-0.077-0.092-0.182-0.133-0.274c-0.479-1.007-1.201-2.528-2.11-4.441c-0.039-0.091-0.093-0.196-0.13-0.279
					C440.158,289.007,439.702,288.76,439.197,288.998z M433.034,300.68c0.006,0.018,0.006,0.042,0.006,0.064
					c0.81,4.749-0.763,9.595-4.149,12.972c-0.009,0.004-0.012,0.015-0.022,0.021c-0.231,0.233-0.467,0.451-0.718,0.667
					c0,0,0,0-0.003,0.001l0,0c-0.988,0.858-2.094,1.61-3.336,2.202c-1.236,0.587-2.519,0.976-3.806,1.206l0,0
					c-0.003,0-0.006,0-0.006,0c-0.362,0.062-0.724,0.114-1.086,0.147c-0.017,0-0.039,0.006-0.054,0.006
					c-3.819,0.369-7.622-0.764-10.602-3.113v0.003c-0.016-0.015-0.03-0.028-0.045-0.038c-0.327-0.26-0.644-0.531-0.95-0.82
					c-0.05-0.049-0.098-0.096-0.144-0.145c-0.281-0.269-0.552-0.549-0.813-0.838c-0.017-0.027-0.039-0.048-0.061-0.069
					c0.002,0,0.005,0,0.008-0.004c-0.862-0.986-1.616-2.098-2.208-3.342c-0.592-1.248-0.984-2.538-1.211-3.837
					c-0.002,0.003-0.004,0.003-0.004,0.003c-0.003-0.015-0.003-0.039-0.007-0.058c-0.865-5.078,0.989-10.274,4.878-13.66h0.001l0,0
					c0.991-0.865,2.104-1.619,3.348-2.212c5.763-2.751,12.398-1.434,16.718,2.773c0.083,0.077,0.158,0.153,0.236,0.23
					c0.19,0.196,0.371,0.392,0.552,0.592c0.028,0.034,0.061,0.063,0.083,0.094c0,0,0,0.007-0.003,0.007
					c0.851,0.982,1.592,2.079,2.182,3.309c0.595,1.25,0.984,2.541,1.211,3.841C433.034,300.68,433.034,300.68,433.034,300.68z"/>
				<path fill="#FAC400" d="M418.533,293.63c-5.272,0-9.548,4.278-9.548,9.548c0,5.276,4.276,9.554,9.548,9.554
					c5.275,0,9.55-4.278,9.55-9.554C428.083,297.908,423.808,293.63,418.533,293.63z M418.533,310.219
					c-3.885,0-7.034-3.153-7.034-7.036c0-3.886,3.149-7.039,7.034-7.039c3.887,0,7.038,3.153,7.038,7.039
					C425.571,307.066,422.421,310.219,418.533,310.219z"/>
			</g>
		</g>
		<path fill="#FFFEFF" d="M512.36,356.119c0-3.758-3.044-6.804-6.803-6.804c-3.755,0-6.8,3.046-6.8,6.804
			c0,3.754,3.046,6.799,6.8,6.799C509.316,362.918,512.36,359.873,512.36,356.119z"/>
		<path fill="#C1221B" d="M462.97,379.943c0,0,94.465-91.374,94.867-91.798c0.309-0.328,1.049-0.401,1.049-0.401h84.881
			l-0.642-5.124l-79.631,0.053h-6.389c0,0-0.642-0.022-1.049,0.347c-0.232,0.211-97.922,94.753-97.922,94.753
			s-0.41,0.352-0.39,0.795c0.009,0.275,0.226,71.759,0.22,137.249h5.124c0-64.615-0.432-134.845-0.426-135.129
			C462.671,380.209,462.97,379.943,462.97,379.943z"/>
		<path fill="#FAC400" d="M601.359,357.118l-9.201-8.957l-5.971-5.812c0,0-51.132-0.095-53.902-0.101
			c-0.734,0.711-46.773,45.361-49.851,48.346c-0.247,0.243-0.445,0.407-0.445,0.908c-0.007,34.088-0.01,103.503-0.01,162.638h5.811
			c0-58.349,0-126.522,0-160.175c0-0.157,0.195-0.653,0.299-0.755c5.858-5.684,23.737-23.025,46.553-45.156
			c16.423,0.028,33.133,0.061,49.238,0.09l9.199,8.959l4.946,4.816l4.123-4.798C601.875,357.118,601.602,357.118,601.359,357.118z"
			/>
		<path fill="#FFFEFF" d="M545.134,313.962c-0.067-0.003-71.625,69.414-74.442,72.15c-0.253,0.238-0.448,0.405-0.448,0.906
			c-0.006,35.098-0.006,107.646-0.01,167.873h5.811c0-59.455,0-130.746,0-165.41c0-0.158,0.195-0.653,0.299-0.754
			c6.039-5.858,46.822-45.232,71.265-68.936c49.852,0.367,105.967,0.784,141.34,1.045v-5.804
			C652.315,314.758,595.241,314.333,545.134,313.962z"/>
		<path fill="#FAC400" d="M646.589,229.073c-13.741,13.322-27.071,26.826-36.834,36.288c-0.527,0.511-2.22,1.501-3.623,1.511
			c-28.183,0.204-50.525,0.095-54.958,0.105c-0.547,0-1.014,0.299-1.418,0.617c-0.156,0.125-104.272,101.015-108.213,104.834
			c-0.645,0.622-1.064,1.132-1.064,2.135c-0.003,38.168-0.006,118.679-0.014,180.754h7.99c-0.004-75.869-0.01-176.492,0.003-177.191
			c0.025-1.281,0.636-1.877,0.992-2.223c5.961-5.78,103.226-100.019,103.449-100.24c0.556-0.544,1.398-0.693,1.779-0.695
			c6.564-0.013,43.772,0.009,53.591,0.009c2.138,0,3.852-0.77,4.219-1.122c11.337-10.988,27.222-26.385,44.748-43.367
			L646.589,229.073z"/>
		<path fill="#C1221B" d="M689.467,137.488h-8.333h-0.108v0.105c-22.248,21.579-94.028,91.261-107.033,103.872H561.15h-8.331h-0.107
			v0.105c-55.231,53.566-120.663,117.018-126.588,122.765c-0.242,0.24-0.447,0.404-0.447,0.906
			c-0.003,39.55-0.003,126.646-0.006,190.075h5.814c0-62.747-0.003-148.499,0-187.612c0-0.155,0.191-0.653,0.296-0.755
			c11.765-11.413,71.959-69.799,123.424-119.718h12.845h8.337c1.967-1.907,3.952-3.831,5.944-5.765
			c14.189-13.761,82.066-79.658,101.193-98.212h12.84h5.45v-5.765H689.467z"/>
		<path fill="#FFFFFF" d="M668.316,174.232c-17.45,0-31.595,14.146-31.595,31.595c0,17.45,14.145,31.595,31.595,31.595
			c17.452,0,31.595-14.145,31.595-31.595C699.911,188.377,685.768,174.232,668.316,174.232z M668.316,232.675
			c-14.829,0-26.847-12.02-26.847-26.848c0-14.829,12.017-26.847,26.847-26.847c14.828,0,26.848,12.019,26.848,26.847
			C695.164,220.656,683.144,232.675,668.316,232.675z"/>
		<path fill="#FFFEFF" d="M665.522,385.074c0-22.006-17.84-39.846-39.848-39.846c-22.005,0-39.846,17.84-39.846,39.846
			c0,22.01,17.841,39.848,39.846,39.848C647.682,424.923,665.522,407.084,665.522,385.074z"/>
		<path fill="#FFFEFF" d="M776.808,140.546c0-24.064-19.508-43.568-43.57-43.568c-24.059,0-43.569,19.504-43.569,43.568
			c0,24.062,19.509,43.57,43.569,43.57C757.3,184.116,776.808,164.609,776.808,140.546z"/>
		<path fill="#FFFEFF" d="M695.164,205.827c0-14.829-12.023-26.847-26.848-26.847c-14.829,0-26.85,12.019-26.85,26.847
			c0,14.826,12.02,26.848,26.85,26.848C683.141,232.675,695.164,220.653,695.164,205.827z"/>
		<circle fill="#FFFEFF" cx="724.879" cy="317.472" r="41.803"/>
		<circle fill="#FAC400" cx="610.02" cy="267.843" r="11.661"/>
		<circle fill="#C1221B" cx="665.038" cy="158.374" r="9.231"/>
		<g>
			<path fill="#FFFEFF" d="M489.198,268.669c-0.649,0.097-1.753,0.259-3.18,0.47c-0.802-2.302-2.09-4.341-3.724-6.026
				c1.137-1.505,1.831-2.442,1.865-2.5c0.193-0.343,0.036-0.663-0.452-0.993c-0.06-0.042-0.684-0.509-1.699-1.273
				c-1.015-0.767-1.636-1.239-1.692-1.286c-0.45-0.375-0.802-0.438-1.08-0.16c-0.047,0.049-0.8,1.038-2.014,2.635
				c-1.888-0.854-3.956-1.362-6.104-1.445c-0.302-2.02-0.499-3.274-0.518-3.34c-0.114-0.378-0.448-0.486-1.023-0.373
				c-0.074,0.012-0.845,0.133-2.098,0.322c-1.259,0.185-2.032,0.298-2.103,0.306c-0.589,0.059-0.876,0.262-0.872,0.657
				c0,0.07,0.181,1.326,0.48,3.345c-2.164,0.755-4.09,1.948-5.711,3.449c-1.644-1.191-2.671-1.927-2.733-1.962
				c-0.349-0.183-0.659-0.02-0.983,0.472c-0.041,0.061-0.498,0.696-1.24,1.724c-0.75,1.027-1.211,1.657-1.255,1.712
				c-0.369,0.463-0.425,0.809-0.139,1.084c0.046,0.048,1.047,0.778,2.667,1.959c-0.95,1.977-1.522,4.152-1.614,6.425
				c-2.016,0.301-3.267,0.494-3.332,0.515c-0.38,0.109-0.492,0.447-0.377,1.025c0.015,0.072,0.133,0.841,0.322,2.099
				c0.181,1.257,0.294,2.027,0.3,2.102c0.059,0.586,0.264,0.875,0.657,0.87c0.07-0.001,1.323-0.18,3.342-0.475
				c0.678,1.944,1.704,3.699,2.993,5.213c-0.952,1.263-1.689,2.245-2.111,2.806c-0.262,0.347-0.144,0.736,0.334,1.095
				c0.053,0.041,0.125,0.097,0.189,0.144c1.319,0.993,2.37,1.788,3.067,2.314c0.059,0.04,0.131,0.097,0.188,0.14
				c0.473,0.359,0.882,0.366,1.144,0.02c0.405-0.537,1.099-1.456,1.994-2.639c2.15,1.147,4.573,1.829,7.104,1.928
				c0.217,1.43,0.383,2.535,0.481,3.188c0.062,0.432,0.426,0.619,1.01,0.53c0.069-0.011,0.163-0.024,0.235-0.037
				c0.862-0.13,2.163-0.324,3.803-0.568c0.074-0.011,0.162-0.025,0.232-0.036c0.591-0.086,0.878-0.373,0.815-0.802
				c-0.098-0.653-0.261-1.76-0.475-3.191c2.26-0.79,4.269-2.05,5.932-3.648c1.188,0.858,2.106,1.524,2.648,1.917
				c0.351,0.254,0.735,0.126,1.086-0.354c0.041-0.055,0.095-0.13,0.138-0.193c0.512-0.703,1.285-1.771,2.257-3.106
				c0.044-0.063,0.1-0.137,0.138-0.196c0.351-0.48,0.353-0.886-0.001-1.142c-0.544-0.396-1.476-1.072-2.676-1.949
				c0.885-1.915,1.415-4.01,1.5-6.198c1.432-0.214,2.537-0.378,3.189-0.475c0.432-0.065,0.616-0.425,0.534-1.013
				c-0.012-0.067-0.026-0.16-0.037-0.233c-0.126-0.862-0.32-2.165-0.562-3.801c-0.01-0.076-0.025-0.166-0.037-0.237
				C489.916,268.896,489.63,268.604,489.198,268.669z M481.933,275.989c0.001,0.018-0.004,0.034-0.009,0.05
				c-0.48,3.733-2.761,6.995-6.059,8.743c-0.008,0.005-0.012,0.009-0.019,0.013c-0.227,0.118-0.456,0.229-0.688,0.333
				c0,0,0,0.001-0.004,0.002l0,0c-0.936,0.416-1.932,0.725-2.995,0.883c-1.059,0.156-2.108,0.157-3.121,0.032l0,0
				c-0.003-0.001-0.003-0.001-0.003-0.001c-0.285-0.033-0.565-0.08-0.845-0.137c-0.011-0.003-0.032-0.007-0.04-0.009
				c-2.938-0.595-5.519-2.307-7.211-4.742l0,0c-0.011-0.013-0.018-0.028-0.023-0.039c-0.19-0.267-0.361-0.543-0.525-0.829
				c-0.029-0.046-0.051-0.093-0.076-0.139c-0.147-0.264-0.286-0.537-0.414-0.815c-0.006-0.021-0.021-0.041-0.03-0.062
				c0.003,0.001,0.003,0.001,0.006,0c-0.419-0.936-0.73-1.938-0.888-3.002c-0.156-1.067-0.157-2.118-0.029-3.144
				c0,0.001-0.003,0-0.003,0c0.001-0.012,0.005-0.028,0.01-0.043c0.511-3.992,3.078-7.451,6.755-9.093l0.003,0.001l0,0
				c0.938-0.419,1.943-0.728,3.007-0.889c4.932-0.738,9.587,1.756,11.856,5.885c0.043,0.073,0.083,0.149,0.122,0.225
				c0.097,0.187,0.19,0.375,0.278,0.568c0.014,0.031,0.031,0.06,0.044,0.09c0,0-0.004,0.002-0.006,0.001
				c0.412,0.929,0.716,1.919,0.874,2.973c0.159,1.069,0.157,2.121,0.028,3.146C481.933,275.989,481.933,275.989,481.933,275.989z"/>
			<path fill="#FFFEFF" d="M472.709,267.415c-3.937-1.202-8.109,1.018-9.311,4.957c-1.203,3.942,1.018,8.11,4.955,9.312
				c3.94,1.203,8.108-1.015,9.311-4.957C478.867,272.788,476.649,268.618,472.709,267.415z M468.925,279.809
				c-2.902-0.886-4.539-3.958-3.653-6.861c0.887-2.905,3.961-4.539,6.863-3.653c2.903,0.886,4.539,3.958,3.652,6.863
				C474.901,279.06,471.828,280.695,468.925,279.809z"/>
		</g>
		<g>
			<path fill="#FFFEFF" d="M389.058,264.818c-0.522,0.078-1.411,0.209-2.559,0.378c-0.645-1.853-1.682-3.494-2.997-4.85
				c0.915-1.211,1.473-1.966,1.501-2.012c0.155-0.276,0.029-0.533-0.364-0.799c-0.049-0.034-0.55-0.409-1.367-1.025
				c-0.817-0.617-1.317-0.997-1.362-1.035c-0.362-0.302-0.645-0.353-0.87-0.129c-0.038,0.039-0.644,0.836-1.621,2.121
				c-1.519-0.687-3.184-1.096-4.913-1.163c-0.243-1.626-0.402-2.635-0.417-2.689c-0.091-0.304-0.361-0.391-0.823-0.3
				c-0.059,0.01-0.68,0.107-1.689,0.259c-1.013,0.149-1.635,0.24-1.693,0.246c-0.474,0.048-0.705,0.211-0.702,0.529
				c0,0.056,0.146,1.067,0.387,2.692c-1.742,0.608-3.292,1.568-4.597,2.776c-1.324-0.958-2.15-1.551-2.2-1.579
				c-0.281-0.147-0.531-0.016-0.791,0.38c-0.033,0.049-0.401,0.56-0.998,1.388c-0.604,0.826-0.974,1.333-1.01,1.378
				c-0.297,0.372-0.342,0.651-0.111,0.872c0.037,0.038,0.843,0.626,2.147,1.577c-0.765,1.592-1.225,3.342-1.299,5.172
				c-1.623,0.242-2.629,0.398-2.682,0.415c-0.306,0.088-0.396,0.36-0.303,0.825c0.012,0.058,0.107,0.677,0.259,1.69
				c0.145,1.012,0.236,1.631,0.241,1.692c0.047,0.472,0.212,0.704,0.529,0.701c0.057-0.001,1.065-0.145,2.69-0.382
				c0.545,1.565,1.372,2.977,2.409,4.196c-0.766,1.016-1.36,1.807-1.699,2.259c-0.211,0.28-0.116,0.592,0.269,0.881
				c0.043,0.033,0.1,0.078,0.152,0.116c1.061,0.799,1.907,1.439,2.468,1.862c0.048,0.032,0.105,0.078,0.151,0.112
				c0.381,0.289,0.71,0.295,0.921,0.016c0.326-0.432,0.885-1.172,1.605-2.124c1.731,0.923,3.681,1.472,5.718,1.552
				c0.174,1.151,0.308,2.04,0.387,2.566c0.05,0.347,0.343,0.498,0.813,0.427c0.055-0.009,0.131-0.019,0.189-0.029
				c0.694-0.105,1.741-0.261,3.061-0.457c0.059-0.009,0.13-0.02,0.187-0.029c0.475-0.069,0.707-0.301,0.656-0.646
				c-0.079-0.525-0.21-1.416-0.383-2.568c1.819-0.636,3.436-1.65,4.775-2.936c0.956,0.691,1.695,1.227,2.131,1.543
				c0.283,0.204,0.592,0.101,0.874-0.285c0.033-0.044,0.076-0.105,0.111-0.155c0.412-0.566,1.034-1.425,1.817-2.5
				c0.035-0.051,0.08-0.111,0.111-0.158c0.283-0.387,0.284-0.713-0.001-0.919c-0.438-0.319-1.188-0.863-2.154-1.569
				c0.712-1.541,1.139-3.228,1.207-4.989c1.153-0.172,2.042-0.305,2.567-0.382c0.348-0.052,0.496-0.342,0.429-0.815
				c-0.009-0.054-0.021-0.129-0.03-0.188c-0.101-0.694-0.258-1.743-0.452-3.06c-0.008-0.061-0.021-0.134-0.03-0.191
				C389.636,265,389.405,264.765,389.058,264.818z M383.21,270.709c0.001,0.014-0.003,0.027-0.007,0.04
				c-0.387,3.004-2.222,5.63-4.877,7.037c-0.006,0.004-0.01,0.007-0.016,0.011c-0.183,0.095-0.367,0.185-0.553,0.268
				c0,0,0,0.001-0.003,0.002l0,0c-0.753,0.335-1.555,0.584-2.41,0.711c-0.853,0.126-1.696,0.126-2.512,0.026l0,0
				c-0.002-0.001-0.002-0.001-0.002-0.001c-0.229-0.026-0.454-0.064-0.68-0.111c-0.009-0.003-0.025-0.005-0.032-0.007
				c-2.365-0.479-4.442-1.857-5.804-3.817l0,0c-0.009-0.011-0.014-0.022-0.019-0.031c-0.153-0.215-0.29-0.437-0.423-0.667
				c-0.023-0.037-0.041-0.075-0.061-0.112c-0.118-0.212-0.23-0.432-0.333-0.656c-0.005-0.017-0.017-0.033-0.024-0.05
				c0.002,0.001,0.002,0.001,0.005,0c-0.337-0.753-0.587-1.56-0.715-2.417c-0.126-0.859-0.127-1.705-0.023-2.53
				c0,0.001-0.003,0-0.003,0c0-0.01,0.004-0.023,0.008-0.034c0.411-3.213,2.478-5.997,5.437-7.319l0.002,0.001l0,0
				c0.755-0.337,1.564-0.586,2.42-0.716c3.97-0.594,7.717,1.414,9.543,4.737c0.035,0.059,0.066,0.12,0.098,0.181
				c0.078,0.15,0.153,0.302,0.224,0.457c0.011,0.025,0.025,0.048,0.036,0.072c0,0-0.003,0.002-0.005,0.001
				c0.332,0.748,0.576,1.545,0.704,2.393c0.128,0.861,0.126,1.707,0.023,2.532C383.21,270.709,383.21,270.709,383.21,270.709z"/>
			<path fill="#FFFEFF" d="M375.786,263.808c-3.169-0.967-6.527,0.819-7.495,3.99c-0.969,3.173,0.819,6.528,3.989,7.495
				c3.171,0.968,6.526-0.817,7.495-3.99C380.742,268.133,378.957,264.776,375.786,263.808z M372.741,273.783
				c-2.336-0.713-3.654-3.186-2.94-5.522c0.714-2.338,3.188-3.654,5.524-2.941c2.337,0.713,3.654,3.186,2.94,5.524
				C377.551,273.181,375.077,274.497,372.741,273.783z"/>
		</g>
		<path fill="#C1221B" d="M576.876,184.569c0.341-0.018,10.627-0.986,14.002-0.944c0.834,0.012,0.837-0.378,0.216-1.037
			c-0.121-0.129-1.041-1.094-2.33-2.45c2.501-2.33,8.311-7.755,9.991-9.318c1.887-1.762,2.061-2.985,1.101-4.1
			c-0.296-0.34-4.51-4.803-4.826-5.115c-1.061-1.03-2.299-0.931-4.186,0.827c-1.689,1.574-7.543,7.038-10.022,9.352
			c-1.281-1.347-2.196-2.312-2.33-2.45c-0.622-0.638-0.827-0.558-0.876,0.131c-0.245,3.303-1.329,13.899-1.366,14.455
			C576.221,184.325,576.465,184.591,576.876,184.569z"/>
		<path fill="#FFFEFF" d="M327.768,356.119c0-3.758,3.043-6.804,6.803-6.804c3.756,0,6.801,3.046,6.801,6.804
			c0,3.754-3.046,6.799-6.801,6.799C330.811,362.918,327.768,359.873,327.768,356.119z"/>
		<path fill="#C1221B" d="M377.158,379.943c0,0-94.465-91.374-94.867-91.798c-0.31-0.328-1.049-0.401-1.049-0.401H196.36
			l0.641-5.124l79.631,0.053h6.388c0,0,0.642-0.022,1.049,0.347c0.233,0.211,97.922,94.753,97.922,94.753s0.41,0.352,0.39,0.795
			c-0.009,0.275-0.226,71.759-0.22,137.249h-5.124c0-64.615,0.431-134.845,0.425-135.129
			C377.457,380.209,377.158,379.943,377.158,379.943z"/>
		<path fill="#FAC400" d="M238.768,357.118l9.201-8.957l5.971-5.812c0,0,51.132-0.095,53.902-0.101
			c0.733,0.711,46.773,45.361,49.852,48.346c0.246,0.243,0.445,0.407,0.445,0.908c0.006,34.088,0.009,103.503,0.009,162.638h-5.81
			c0-58.349,0-126.522,0-160.175c0-0.157-0.196-0.653-0.299-0.755c-5.858-5.684-23.738-23.025-46.554-45.156
			c-16.423,0.028-33.133,0.061-49.238,0.09l-9.199,8.959l-4.946,4.816l-4.122-4.798
			C238.254,357.118,238.525,357.118,238.768,357.118z"/>
		<path fill="#FFFEFF" d="M294.993,313.962c0.068-0.003,71.625,69.414,74.442,72.15c0.253,0.238,0.448,0.405,0.448,0.906
			c0.007,35.098,0.007,107.646,0.01,167.873h-5.811c0-59.455,0-130.746,0-165.41c0-0.158-0.195-0.653-0.299-0.754
			c-6.039-5.858-46.821-45.232-71.264-68.936c-49.853,0.367-105.966,0.784-141.34,1.045v-5.804
			C187.813,314.758,244.887,314.333,294.993,313.962z"/>
		<path fill="#FAC400" d="M193.538,229.073c13.741,13.322,27.073,26.826,36.835,36.288c0.527,0.511,2.219,1.501,3.623,1.511
			c28.183,0.204,50.524,0.095,54.958,0.105c0.548,0,1.014,0.299,1.418,0.617c0.157,0.125,104.273,101.015,108.213,104.834
			c0.646,0.622,1.065,1.132,1.065,2.135c0.003,38.168,0.007,118.679,0.014,180.754h-7.988c0.003-75.869,0.009-176.492-0.003-177.191
			c-0.026-1.281-0.637-1.877-0.994-2.223c-5.96-5.78-103.225-100.019-103.448-100.24c-0.557-0.544-1.399-0.693-1.78-0.695
			c-6.564-0.013-43.771,0.009-53.59,0.009c-2.139,0-3.853-0.77-4.219-1.122c-11.337-10.988-27.222-26.385-44.748-43.367
			L193.538,229.073z"/>
		<path fill="#C1221B" d="M150.66,137.488h8.332h0.11v0.105c22.248,21.579,94.027,91.261,107.033,103.872h12.843h8.33h0.108v0.105
			c55.231,53.566,120.663,117.018,126.587,122.765c0.241,0.24,0.447,0.404,0.447,0.906c0.003,39.55,0.003,126.646,0.006,190.075
			h-5.814c0-62.747,0.004-148.499,0-187.612c0-0.155-0.191-0.653-0.295-0.755c-11.766-11.413-71.96-69.799-123.426-119.718h-12.844
			h-8.338c-1.966-1.907-3.952-3.831-5.943-5.765c-14.189-13.761-82.066-79.658-101.193-98.212h-12.841h-5.45v-5.765H150.66z"/>
		<path fill="#FFFEFF" d="M157.814,282.161c0-14.135,11.457-25.596,25.598-25.596c14.136,0,25.593,11.461,25.593,25.596
			c0,14.136-11.457,25.6-25.593,25.6C169.271,307.76,157.814,296.297,157.814,282.161z"/>
		<path fill="#FFFEFF" d="M174.606,385.074c0-22.006,17.841-39.846,39.848-39.846c22.004,0,39.845,17.84,39.845,39.846
			c0,22.01-17.841,39.848-39.845,39.848C192.447,424.923,174.606,407.084,174.606,385.074z"/>
		<path fill="#FFFEFF" d="M63.319,140.546c0-24.064,19.508-43.568,43.57-43.568c24.059,0,43.569,19.504,43.569,43.568
			c0,24.062-19.509,43.57-43.569,43.57C82.827,184.116,63.319,164.609,63.319,140.546z"/>
		<circle fill="#FFFEFF" cx="115.249" cy="317.472" r="41.803"/>
		<circle fill="#FAC400" cx="230.107" cy="267.843" r="11.661"/>
		<circle fill="#C1221B" cx="175.089" cy="158.374" r="9.231"/>
		<path fill="#C1221B" d="M263.121,184.576c-0.342-0.02-10.627-0.986-14.003-0.944c-0.833,0.013-0.837-0.378-0.216-1.037
			c0.121-0.129,1.041-1.094,2.33-2.45c-2.5-2.33-8.311-7.755-9.991-9.318c-1.887-1.762-2.061-2.985-1.1-4.099
			c0.295-0.34,4.509-4.804,4.825-5.115c1.061-1.031,2.299-0.931,4.186,0.827c1.689,1.573,7.543,7.038,10.022,9.352
			c1.281-1.347,2.196-2.312,2.33-2.45c0.621-0.639,0.827-0.558,0.876,0.131c0.245,3.303,1.329,13.898,1.366,14.455
			C263.775,184.331,263.531,184.597,263.121,184.576z"/>
		<circle fill="#FFFFFF" cx="654.807" cy="283.224" r="26.345"/>
		<circle fill="#FFFFFF" cx="173.528" cy="209.65" r="31.66"/>
		<path fill="#FBC500" d="M590.839,431.701H259.101c0,0-4.483-0.001-4.483,4.481c0,4.484,0,213.689,0,213.689h340.704
			c0,0,0-209.206,0-213.689C595.322,431.701,590.839,431.701,590.839,431.701z"/>
		<rect x="274.045" y="451.127" fill="#C19409" width="300.357" height="174.835"/>
		<polygon fill="#FBC500" points="658.084,726.081 193.351,726.081 190.363,729.046 190.363,739.53 661.072,739.53 661.072,729.046 
					"/>
		<polygon fill="#FFD85C" points="595.322,649.871 254.618,649.871 190.363,729.07 661.072,729.07 		"/>
		<g>
			<rect x="259.101" y="660.331" fill="#FFFFFF" width="135.983" height="2.989"/>
			<rect x="253.124" y="676.769" fill="#FFFFFF" width="135.983" height="2.989"/>
			<rect x="244.158" y="694.701" fill="#FFFFFF" width="135.983" height="2.989"/>
		</g>
		<g>
			<rect x="441.408" y="660.331" fill="#FFFFFF" width="135.983" height="2.989"/>
			<rect x="368.187" y="676.769" fill="#FFFFFF" width="215.181" height="2.989"/>
			<rect x="354.738" y="694.701" fill="#FFFFFF" width="237.596" height="2.989"/>
		</g>
		<rect x="277.033" y="452.997" fill="#FFFFFF" width="294.38" height="171.847"/>
		<g>
			<path d="M229.853,388.413c0.943-0.956,1.642-2.249,2.057-3.482c0.573-0.231,1.036-0.816,1.215-1.52
				c0.162-0.651,0.547-2.176-0.292-2.644v-1.092c0.056-1.927-0.171-4.274-2.386-5.23c-0.174-0.467-0.215-0.873-0.218-0.953
				l-0.188-1.917l-1.363,1.284c-0.446,0.419-2.5,0.825-3.814,0.957l-0.625,0.095c-4.027,0.634-3.972,2.674-3.91,4.845
				c0.005,0.28,0.013,0.577,0.013,0.896l0.03,0.983c-0.603,0.398-0.743,1.341-0.402,2.735c0.174,0.696,0.663,1.281,1.192,1.443
				c0.258,0.707,0.948,2.359,2.154,3.59c-5.024,1.263-8.721,5.357-8.721,10.206v0.446h23.941v-0.446
				C238.538,393.769,234.86,389.685,229.853,388.413L229.853,388.413z M232.728,398.16v-2.337c0-0.248-0.201-0.45-0.446-0.45
				c-0.248,0-0.45,0.201-0.45,0.45v2.337h-10.529v-2.337c0-0.248-0.201-0.45-0.445-0.45c-0.249,0-0.451,0.201-0.451,0.45v2.337
				h-4.902c0.185-3.578,2.591-6.654,6.034-8.2c1.105,1.696,2.984,2.739,5.028,2.739c2.045,0,3.924-1.044,5.029-2.739
				c3.443,1.547,5.855,4.623,6.038,8.2H232.728z M222.378,389.615c0.573-0.206,1.171-0.363,1.787-0.481
				c0.686,0.472,1.485,0.791,2.42,0.791c0.899,0,1.699-0.302,2.407-0.786c0.607,0.117,1.197,0.275,1.765,0.476
				c-0.952,1.358-2.512,2.189-4.19,2.189C224.885,391.804,223.331,390.973,222.378,389.615L222.378,389.615z M221.897,384.115
				c-0.34,0.074-0.878-0.337-1.035-0.966c-0.158-0.642-0.267-1.673,0.083-1.769c0.105-0.03,0.209-0.009,0.319,0.048v-1.778
				c0-2.796-0.63-4.434,3.731-4.901l-0.035-0.013c0,0,3.438-0.35,4.346-1.201c0,0,0.022,0.72,0.389,1.511
				c2.014,0.809,2.267,2.674,2.211,4.605v1.778c0.104-0.057,0.214-0.083,0.319-0.053c0.344,0.096,0.161,1.171,0,1.81
				c-0.153,0.624-0.603,0.991-0.948,0.931c-0.441,1.35-1.32,3.062-2.56,4.062c-0.174,0.14-0.353,0.267-0.546,0.376
				c-0.293,0.167-0.607,0.293-0.935,0.367c-0.215,0.044-0.428,0.079-0.651,0.079c-0.232,0-0.451-0.036-0.669-0.083
				c-0.332-0.075-0.646-0.197-0.944-0.363c-0.192-0.113-0.371-0.24-0.546-0.38C223.199,387.191,222.343,385.495,221.897,384.115
				L221.897,384.115z M221.897,384.115"/>
		</g>
		<g>
			<g>
				<defs>
					<rect id="SVGID_1_" x="737.153" y="126.679" width="24.427" height="27.961"/>
				</defs>
				<clipPath id="SVGID_2_">
					<use xlink:href="#SVGID_1_"  overflow="visible"/>
				</clipPath>
				<path clip-path="url(#SVGID_2_)" d="M761.474,151.712l-0.76-4.25c-0.2-1.136-1.245-2.211-2.372-2.452l-3.901-0.821l-0.804-1.647
					c-0.044-0.083-0.113-0.144-0.192-0.188c0.708-0.904,1.272-1.979,1.678-3.058c0.699-0.254,1.398-0.874,1.604-1.682
					c0.271-1.075-0.018-2.031-0.681-2.45v-0.761c0.607-1.831,0.926-4.827-1.835-6.44c-1.24-0.72-2.263-0.768-3.041-0.516
					c-0.122-0.314,0.24-0.768,0.24-0.768c-0.638-0.022-0.97,0.319-1.109,0.507c-0.852-0.389-1.962-0.555-3.385-0.258
					c-4.565,0.957-5.152,6.942-4.317,8.253c-0.651,0.419-0.931,1.368-0.66,2.434c0.201,0.813,0.909,1.437,1.608,1.687
					c0.402,1.084,0.961,2.159,1.664,3.062c-0.074,0.044-0.144,0.101-0.183,0.179l-0.804,1.652l-3.906,0.821
					c-1.127,0.24-2.171,1.315-2.372,2.452l-0.756,4.25c-0.104,0.591,0.035,1.154,0.394,1.581c0.362,0.433,0.891,0.669,1.494,0.669
					h20.508c0.598,0,1.131-0.236,1.49-0.669C761.44,152.871,761.579,152.307,761.474,151.712L761.474,151.712z M760.391,152.727
					c-0.188,0.223-0.475,0.344-0.807,0.344h-3.976v-2.306c0-0.245-0.201-0.446-0.445-0.446c-0.245,0-0.446,0.201-0.446,0.446v2.306
					h-10.769v-2.306c0-0.245-0.2-0.446-0.445-0.446c-0.249,0-0.446,0.201-0.446,0.446v2.306h-3.975
					c-0.337,0-0.621-0.122-0.809-0.344c-0.188-0.227-0.262-0.529-0.201-0.857l0.756-4.251c0.14-0.773,0.905-1.568,1.678-1.73
					l3.635-0.768c0.022,0.018,0.039,0.039,0.066,0.057l3.927,2.272c0.07,0.039,0.149,0.062,0.224,0.062
					c0.044,0,0.087-0.004,0.131-0.018c0.117-0.039,0.218-0.122,0.271-0.232l0.573-1.171l0.572,1.171
					c0.057,0.11,0.153,0.197,0.276,0.232c0.039,0.013,0.083,0.018,0.126,0.018c0.078,0,0.157-0.018,0.227-0.062l3.928-2.272
					c0.026-0.018,0.044-0.036,0.06-0.057l3.639,0.768c0.77,0.162,1.538,0.957,1.678,1.73l0.756,4.251
					C760.649,152.198,760.578,152.5,760.391,152.727L760.391,152.727z M745.331,143.958l0.289-0.589l0.669,0.384l0.582,0.337
					l0.576,0.337l1.329,0.764l-0.612,1.25l-2.739-1.586l-0.412-0.24l0.07-0.149L745.331,143.958z M753.326,143.958l0.249,0.507
					l0.074,0.144l-3.154,1.826l-0.607-1.246l1.323-0.764l0.577-0.337l0.58-0.337l0.669-0.384L753.326,143.958z M744.274,138.444
					c-0.371,0.079-1.227-0.388-1.398-1.066c-0.174-0.69-0.009-1.337,0.367-1.442c0.114-0.03,0.227-0.004,0.346,0.057v-1.036
					c0,0,0-0.004,0.004-0.009c-0.004-0.009-0.004-0.03-0.004-0.044v-0.358c0.092-0.874,0.922-2.539,5.478-1.045
					c1.574,0.516,2.543-0.301,3.028-1.38c1.551,0.17,2.587,1.93,2.98,3.014v0.857c0.062-0.031,0.119-0.053,0.176-0.062
					c0,0.009,0,0.022-0.004,0.027c0.013,0.012,0.035,0.003,0.065-0.022c0.036-0.004,0.075-0.009,0.11,0.005
					c0.376,0.105,0.541,0.752,0.367,1.442c-0.166,0.669-1.018,1.136-1.389,1.066c-0.585,1.778-1.857,4.151-3.705,4.976
					c-0.423,0.188-0.878,0.298-1.358,0.298c-0.494,0-0.953-0.11-1.377-0.298C746.109,142.608,744.86,140.271,744.274,138.444
					L744.274,138.444z M744.274,138.444"/>
			</g>
		</g>
		<g>
			<path d="M725.526,332.514c0.009,0,0.018-0.004,0.027-0.004c0.013,0,0.026,0.004,0.039,0.004H725.526z M721.831,328.394
				c0.009-0.005,0.017-0.012,0.026-0.017c0.651,2.341,2.324,4.098,4.029,4.133c1.55-0.07,3.456-1.792,4.094-4.12
				c0.289,0.018,0.581-0.328,0.664-0.807c0.083-0.499-0.092-0.944-0.394-0.997c-0.021-0.004-0.039,0.009-0.062,0.009
				c-0.087-3.858-1.917-5.216-4.224-5.273c-2.381,0.013-4.508,1.664-4.373,5.273c-0.022,0-0.048-0.013-0.066-0.009
				c-0.301,0.053-0.48,0.498-0.393,0.997C721.215,328.079,721.525,328.442,721.831,328.394L721.831,328.394z M725.706,321.312
				h-0.293c0.074,0,0.144,0.004,0.218,0.004C725.658,321.316,725.68,321.312,725.706,321.312L725.706,321.312z M712.625,335.266
				h-1.35l1.691-1.691c-3.784,0.367-6.571,1.809-6.571,5.631h8.297l-3.006-3.001L712.625,335.266z M729.092,333.182l-2.163,4.23
				l-0.34-2.752l0.532-0.437h-2.473l0.534,0.437l-0.341,2.752l-2.159-4.23c-3.757,0.503-6.452,2.115-6.452,6.025h19.311
				C735.541,335.297,732.844,333.685,729.092,333.182L729.092,333.182z M718.68,327.468c-0.122,1.682-0.839,3.648-1.87,4.701h3.985
				v-4.443c0-4.649-2.459-6.414-5.487-6.414c-3.032,0-5.492,1.765-5.492,6.414v4.443h3.984c-0.997-1.018-1.703-2.892-1.861-4.534
				l0.039-0.004c1.712,0,3.194-0.712,4.006-1.757C716.583,326.638,717.536,327.21,718.68,327.468L718.68,327.468z M718.68,327.468"
				/>
		</g>
		<g>
			<g>
				<defs>
					<rect id="SVGID_3_" x="117.486" y="304.964" width="24.427" height="27.961"/>
				</defs>
				<clipPath id="SVGID_4_">
					<use xlink:href="#SVGID_3_"  overflow="visible"/>
				</clipPath>
				<path clip-path="url(#SVGID_4_)" d="M141.039,330.055l-0.73-4.111c-0.197-1.105-1.21-2.154-2.306-2.381l-0.591-0.126v-9.096
					c0-6.793-3.591-9.376-8.025-9.376c-4.435,0-8.026,2.582-8.026,9.376v9.053l-0.804,0.165c-1.096,0.232-2.11,1.281-2.306,2.386
					l-0.73,4.111c-0.104,0.576,0.031,1.126,0.385,1.546c0.353,0.419,0.869,0.651,1.455,0.651h19.839
					c0.586,0,1.101-0.232,1.455-0.651C141.003,331.182,141.143,330.636,141.039,330.055L141.039,330.055z M139.969,331.03
					c-0.18,0.214-0.455,0.332-0.77,0.332h-3.832v-2.22c0-0.248-0.2-0.445-0.445-0.445c-0.249,0-0.45,0.197-0.45,0.445v2.22h-10.386
					v-2.22c0-0.248-0.2-0.445-0.45-0.445c-0.245,0-0.445,0.197-0.445,0.445v2.22h-3.832c-0.319,0-0.591-0.119-0.769-0.332
					c-0.179-0.215-0.248-0.503-0.192-0.818l0.73-4.111c0.135-0.747,0.874-1.511,1.612-1.664l2.792-0.585l1.123-0.24l0.406,0.24
					l3.05,1.765c0.069,0.039,0.149,0.057,0.223,0.057c0.044,0,0.092-0.004,0.131-0.018c0.119-0.039,0.219-0.122,0.272-0.231
					l0.541-1.105l0.541,1.105c0.057,0.11,0.153,0.192,0.272,0.231c0.044,0.013,0.087,0.018,0.131,0.018
					c0.078,0,0.157-0.018,0.223-0.057l3.053-1.765l0.407-0.24l1.123,0.24l2.787,0.585c0.743,0.158,1.476,0.917,1.612,1.664
					l0.734,4.111C140.217,330.523,140.148,330.815,139.969,331.03L139.969,331.03z M123.755,314.794
					c0.101-0.026,0.206-0.005,0.311,0.053v-0.284h6.147l0.559-3.346v3.477h3.722v0.158c0.105-0.061,0.21-0.083,0.31-0.053
					c0.346,0.101,0.494,0.725,0.337,1.394c-0.153,0.651-0.926,1.101-1.263,1.031c-0.651,2.118-2.922,4.565-4.596,4.565
					c-1.726,0-3.937-2.39-4.592-4.565c-0.336,0.074-1.114-0.376-1.266-1.031C123.261,315.52,123.41,314.899,123.755,314.794
					L123.755,314.794z M133.437,322.85l-0.263,0.149l-0.576,0.337l-0.887,0.511l-1.297,0.752l-0.368-0.752l-0.209-0.428l0.834-0.481
					l0.585-0.34l0.582-0.337l1.027-0.589l0.437,0.899L133.437,322.85z M125.7,321.672l1.022,0.589l0.58,0.337l0.586,0.34
					l0.834,0.481l-0.21,0.428l-0.367,0.752l-1.297-0.752l-0.887-0.511l-0.577-0.337l-0.262-0.149l0.135-0.28L125.7,321.672z
					 M125.7,321.672"/>
			</g>
		</g>
		<g>
			<path d="M173.48,200.585c-0.074,0-0.149-0.004-0.223-0.004h0.293C173.523,200.581,173.502,200.585,173.48,200.585L173.48,200.585
				z M182.384,204.147c0.053,0,0.105,0.004,0.158,0.004c0.021,0,0.035-0.004,0.051-0.004H182.384z M169.32,207.707
				c0.009,0,0.018-0.013,0.031-0.013c0.651,2.36,2.336,4.125,4.054,4.164c1.564-0.074,3.477-1.809,4.119-4.155
				c0.293,0.018,0.586-0.328,0.669-0.812c0.087-0.502-0.092-0.948-0.394-1.005c-0.021,0-0.039,0.013-0.06,0.013
				c-0.087-3.884-1.932-5.251-4.256-5.313c-2.395,0.009-4.54,1.678-4.404,5.313c-0.021,0-0.044-0.013-0.065-0.013
				c-0.306,0.057-0.481,0.503-0.398,1.005C168.701,207.392,169.015,207.759,169.32,207.707L169.32,207.707z M173.37,211.857h0.066
				c-0.013,0-0.026,0-0.035,0C173.388,211.857,173.379,211.857,173.37,211.857L173.37,211.857z M179.54,209.288
				c0.009,0,0.013-0.009,0.018-0.009c0.471,1.7,1.69,2.976,2.927,3.002c1.132-0.053,2.512-1.306,2.971-2.997
				c0.214,0.013,0.424-0.236,0.485-0.585c0.06-0.362-0.066-0.686-0.289-0.726c-0.013,0-0.027,0.009-0.039,0.009
				c-0.062-2.801-1.394-3.787-3.071-3.831c-1.726,0.008-3.273,1.21-3.176,3.831c-0.018,0-0.031-0.012-0.048-0.009
				c-0.219,0.04-0.35,0.364-0.284,0.726C179.09,209.061,179.317,209.327,179.54,209.288L179.54,209.288z M182.515,212.281
				c-0.013,0-0.017,0-0.03,0c-0.005,0-0.013,0-0.018,0H182.515z M176.629,212.53l-2.175,4.255l-0.341-2.769l0.538-0.437h-2.495
				l0.538,0.437l-0.341,2.769l-2.175-4.255c-3.779,0.507-6.493,2.127-6.493,6.068h19.442
				C183.122,214.658,180.409,213.037,176.629,212.53L176.629,212.53z M164.218,204.147c0.057,0,0.109,0.004,0.161,0.004
				c0.018,0,0.036-0.004,0.053-0.004H164.218z M164.834,213.841l0.384-0.32h-1.795l0.388,0.32l-0.248,1.996l-1.565-3.071
				c-2.73,0.367-4.687,1.538-4.687,4.378h6.252c0.205-1.058,0.655-1.945,1.35-2.665L164.834,213.841z M184.813,212.766l-1.568,3.071
				l-0.249-1.996l0.388-0.32h-1.795l0.389,0.32l-0.084,0.638c0.696,0.72,1.145,1.607,1.354,2.665h6.248
				C189.496,214.304,187.539,213.133,184.813,212.766L184.813,212.766z M164.349,212.281c-0.009,0-0.018,0-0.026,0
				c-0.005,0-0.013,0-0.022,0H164.349z M161.378,209.288c0.009,0,0.012-0.009,0.021-0.009c0.468,1.7,1.687,2.976,2.924,3.002
				c1.126-0.053,2.512-1.306,2.971-2.997c0.214,0.013,0.424-0.236,0.484-0.585c0.061-0.362-0.065-0.686-0.287-0.726
				c-0.013,0-0.027,0.009-0.04,0.009c-0.065-2.801-1.394-3.787-3.071-3.831c-1.726,0.008-3.271,1.21-3.176,3.831
				c-0.017,0-0.03-0.012-0.047-0.009c-0.219,0.04-0.35,0.364-0.289,0.726C160.932,209.061,161.156,209.327,161.378,209.288
				L161.378,209.288z M161.378,209.288"/>
		</g>
		<g>
			<path d="M89.55,131.103c-0.03,0-0.06,0.009-0.092,0.009c-0.096-0.004-0.188-0.009-0.284-0.009H89.55z M89.406,145.664
				c-0.018,0-0.036-0.003-0.053-0.003c-0.013,0-0.022,0.003-0.036,0.003H89.406z M84.08,140.308
				c0.017-0.005,0.026-0.017,0.039-0.021c0.843,3.046,3.023,5.326,5.239,5.374c2.013-0.092,4.491-2.333,5.316-5.361
				c0.38,0.021,0.76-0.424,0.866-1.049c0.11-0.651-0.122-1.228-0.511-1.297c-0.027-0.004-0.053,0.013-0.078,0.013
				c-0.114-5.012-2.495-6.781-5.493-6.855c-3.092,0.012-5.863,2.162-5.688,6.855c-0.03,0-0.056-0.018-0.083-0.013
				c-0.393,0.069-0.624,0.646-0.516,1.297C83.281,139.898,83.687,140.374,84.08,140.308L84.08,140.308z M93.521,146.53l-2.808,5.501
				l-0.446-3.578l0.695-0.568h-3.215l0.695,0.568l-0.445,3.578l-2.805-5.501c-4.884,0.66-8.388,2.752-8.388,7.838h25.103
				C101.905,149.278,98.401,147.19,93.521,146.53L93.521,146.53z M93.521,146.53"/>
		</g>
		<g>
			<g>
				<defs>
					
						<rect id="SVGID_5_" x="107.744" y="129.934" transform="matrix(-0.9999 -0.0167 0.0167 -0.9999 237.3863 287.4747)" width="24.294" height="25.627"/>
				</defs>
				<clipPath id="SVGID_6_">
					<use xlink:href="#SVGID_5_"  overflow="visible"/>
				</clipPath>
				<path clip-path="url(#SVGID_6_)" d="M131.862,153.214l-0.709-4.261c-0.186-1.13-1.205-2.208-2.322-2.457l-5.227-1.164
					c0.742-0.908,1.325-2.01,1.74-3.12c0.679-0.244,1.36-0.853,1.554-1.636c0.262-1.041-0.017-1.973-0.666-2.378l-0.003-0.736
					c0.591-1.778,0.9-4.691-1.787-6.253c-1.199-0.701-2.196-0.743-2.946-0.499c-0.119-0.308,0.233-0.747,0.233-0.747
					c-0.62-0.021-0.946,0.31-1.08,0.497c-0.824-0.379-1.903-0.542-3.289-0.25c-4.436,0.932-4.994,6.745-4.178,8.014
					c-0.639,0.41-0.904,1.332-0.645,2.358c0.202,0.794,0.888,1.401,1.564,1.643c0.407,1.087,0.975,2.168,1.696,3.067l-1.753,0.351
					l-3.249,0.645c-1.125,0.222-2.169,1.276-2.383,2.404l-0.808,4.246c-0.11,0.584,0.027,1.137,0.375,1.568
					c0.353,0.426,0.869,0.664,1.465,0.674l20.531,0.233l0.024,0c0.586-0.001,1.101-0.233,1.452-0.647
					C131.819,154.35,131.957,153.796,131.862,153.214L131.862,153.214z M124.792,146.449l-4.052,4.628l-0.57-2.507l0.809-0.723
					l-0.509-0.474c0.935-0.174,1.758-0.656,2.475-1.33L124.792,146.449z M114.808,141.391c-0.361,0.08-1.191-0.375-1.354-1.034
					c-0.175-0.668-0.014-1.296,0.354-1.4c0.106-0.029,0.219-0.007,0.334,0.05l-0.003-1.001c0-0.005,0.005-0.005,0.005-0.01
					c-0.005-0.01-0.005-0.031-0.009-0.045l0.001-0.346c0.089-0.849,0.892-2.462,5.322-1.017c1.524,0.501,2.463-0.295,2.942-1.343
					c1.504,0.165,2.506,1.869,2.895,2.927l0,0.83c0.056-0.029,0.111-0.053,0.166-0.061c0,0.005,0,0.019,0,0.024
					c0.01,0.016,0.036,0.011,0.061-0.018c0.036-0.005,0.071-0.009,0.105,0.002c0.364,0.101,0.529,0.729,0.362,1.402
					c-0.166,0.653-0.99,1.101-1.349,1.035c-0.153,0.473-0.371,0.984-0.626,1.495c-0.926,0.891-2.523,0.924-3.418,0.859
					c-0.126-0.272-0.393-0.467-0.714-0.472c-0.439-0.007-0.807,0.347-0.814,0.787c-0.007,0.441,0.348,0.807,0.787,0.814
					c0.261,0.004,0.483-0.128,0.632-0.315c0.165,0.018,0.349,0.026,0.56,0.03c0.63,0.01,1.418-0.052,2.158-0.3
					c-0.2,0.286-0.414,0.563-0.649,0.814c-0.112,0.119-0.229,0.237-0.352,0.35c-0.131,0.118-0.274,0.23-0.416,0.338
					c-0.609,0.446-1.299,0.724-2.065,0.727c-0.78,0.002-1.477-0.28-2.095-0.736c-0.143-0.102-0.282-0.215-0.415-0.338
					c-0.124-0.112-0.242-0.233-0.359-0.356C115.891,144.037,115.198,142.604,114.808,141.391L114.808,141.391z M116.459,146.014
					c0.729,0.699,1.587,1.198,2.55,1.37l-0.488,0.437l0.792,0.74l-0.622,2.482l-4.022-4.673L116.459,146.014z M130.824,154.228
					c-0.193,0.227-0.486,0.352-0.822,0.352l0.003,0.415l-0.017-0.415l-4.009-0.046l0.026-2.197
					c-0.001-0.231-0.188-0.418-0.418-0.422l-0.005,0c-0.231,0.001-0.413,0.188-0.417,0.413l-0.023,2.197l-10.84-0.126l0.021-2.192
					c0.004-0.236-0.179-0.423-0.413-0.422l-0.005,0c-0.226-0.004-0.409,0.178-0.413,0.408l-0.026,2.202l-4.009-0.048
					c-0.339-0.006-0.638-0.136-0.829-0.369c-0.186-0.234-0.261-0.55-0.195-0.885l0.806-4.246c0.149-0.783,0.938-1.586,1.721-1.739
					l2.773-0.55l5.671,6.593c0.079,0.091,0.194,0.143,0.318,0.145c0.12-0.003,0.237-0.056,0.314-0.145l5.689-6.493l2.923,0.65
					c0.783,0.178,1.556,0.992,1.682,1.78l0.709,4.266C131.093,153.687,131.018,154.001,130.824,154.228L130.824,154.228z
					 M130.824,154.228"/>
			</g>
		</g>
		<g>
			<path d="M182.979,284.937c0.009,0,0.012-0.003,0.026-0.003c0.009,0,0.018,0.003,0.031,0.003H182.979z M179.356,281.223
				c0.009,0,0.013-0.009,0.027-0.013c0.58,2.111,2.093,3.692,3.622,3.723c1.398-0.062,3.11-1.617,3.683-3.71
				c0.263,0.013,0.529-0.296,0.598-0.725c0.079-0.451-0.083-0.852-0.353-0.9c-0.018-0.004-0.035,0.009-0.053,0.009
				c-0.078-3.469-1.726-4.692-3.805-4.749c-2.141,0.012-4.054,1.499-3.937,4.749c-0.017,0-0.039-0.013-0.057-0.009
				c-0.271,0.048-0.432,0.45-0.353,0.9C178.801,280.944,179.085,281.272,179.356,281.223L179.356,281.223z M183.135,274.854h-0.262
				c0.066,0,0.131,0.005,0.197,0.005C183.096,274.858,183.118,274.854,183.135,274.854L183.135,274.854z M185.892,285.536
				l-1.944,3.805l-0.31-2.477l0.48-0.393h-2.228l0.481,0.393l-0.306,2.477l-1.944-3.805c-3.377,0.454-5.801,1.905-5.801,5.421
				h17.375C191.695,287.436,189.27,285.99,185.892,285.536L185.892,285.536z M170.912,287.41h-1.215l1.524-1.524
				c-3.408,0.337-5.915,1.634-5.915,5.072h7.467l-2.704-2.7L170.912,287.41z M176.364,280.394c-0.11,1.512-0.756,3.282-1.682,4.229
				h3.587v-3.997c0-4.181-2.216-5.771-4.941-5.771c-2.731,0-4.941,1.586-4.941,5.771v3.997h3.587
				c-0.896-0.913-1.533-2.604-1.678-4.08l0.035-0.004c1.542,0,2.874-0.638,3.609-1.582
				C174.476,279.646,175.333,280.162,176.364,280.394L176.364,280.394z M195.946,288.257l-2.704,2.7h7.466
				c0-3.438-2.512-4.736-5.915-5.072l1.521,1.524h-1.215L195.946,288.257z M192.075,278.956c0.729,0.944,2.061,1.582,3.608,1.582
				l0.035,0.004c-0.14,1.481-0.777,3.167-1.678,4.08h3.584v-3.997c0-4.181-2.211-5.771-4.938-5.771
				c-2.726,0-4.941,1.586-4.941,5.771v3.997h3.588c-0.927-0.947-1.574-2.717-1.687-4.229
				C190.677,280.162,191.537,279.646,192.075,278.956L192.075,278.956z M192.075,278.956"/>
		</g>
		<g>
			<g>
				<defs>
					
						<rect id="SVGID_7_" x="82.283" y="304.964" transform="matrix(-1 0.0032 -0.0032 -1 192.4406 637.5784)" width="26.843" height="27.961"/>
				</defs>
				<clipPath id="SVGID_8_">
					<use xlink:href="#SVGID_7_"  overflow="visible"/>
				</clipPath>
				<path clip-path="url(#SVGID_8_)" d="M108.353,329.857l-0.766-4.568c-0.204-1.21-1.301-2.364-2.498-2.627l-5.605-1.236
					c0.792-0.977,1.418-2.158,1.859-3.343c0.728-0.269,1.452-0.917,1.663-1.761c0.276-1.115-0.024-2.115-0.721-2.546l-0.003-0.791
					c0.628-1.911,0.95-5.027-1.931-6.7c-1.291-0.747-2.357-0.788-3.165-0.522c-0.123-0.327,0.247-0.805,0.247-0.805
					c-0.66-0.02-1.008,0.335-1.151,0.533c-0.884-0.404-2.043-0.575-3.527-0.26c-4.75,1.016-5.333,7.244-4.458,8.604
					c-0.681,0.44-0.966,1.431-0.683,2.537c0.213,0.843,0.949,1.491,1.68,1.75c0.435,1.165,1.051,2.325,1.828,3.283l-1.882,0.377
					l-3.479,0.702c-1.205,0.243-2.324,1.374-2.548,2.581l-0.854,4.552c-0.115,0.629,0.031,1.223,0.408,1.685
					c0.373,0.457,0.933,0.708,1.566,0.715l22.007,0.199l0.03,0c0.63-0.002,1.184-0.248,1.562-0.695
					C108.309,331.072,108.46,330.481,108.353,329.857L108.353,329.857z M94.894,324.893l-0.66,2.667l-4.323-5.001l1.916-0.386
					c0.785,0.754,1.704,1.287,2.74,1.463l-0.523,0.469L94.894,324.893z M96.432,327.593l-0.616-2.689l0.862-0.776l-0.543-0.502
					c1-0.191,1.886-0.713,2.647-1.437l1.977,0.435L96.432,327.593z M90.05,317.228c-0.384,0.084-1.276-0.397-1.459-1.1
					c-0.181-0.721-0.012-1.394,0.38-1.504c0.114-0.035,0.236-0.01,0.355,0.051l-0.003-1.075c0.003-0.004,0.003-0.004,0.008-0.009
					c-0.004-0.013-0.005-0.035-0.008-0.048l-0.001-0.371c0.093-0.913,0.948-2.646,5.702-1.106c1.636,0.532,2.642-0.324,3.146-1.448
					c1.612,0.175,2.697,2.001,3.112,3.132l0.003,0.891c0.057-0.035,0.117-0.057,0.179-0.067c0,0.009,0,0.022-0.004,0.027
					c0.014,0.017,0.039,0.004,0.07-0.023c0.035-0.005,0.074-0.009,0.109,0.004c0.394,0.108,0.566,0.78,0.39,1.502
					c-0.172,0.7-1.058,1.183-1.438,1.11c-0.42,1.282-1.171,2.848-2.228,3.983c-0.121,0.131-0.247,0.258-0.379,0.377
					c-0.139,0.131-0.287,0.245-0.439,0.359c-0.654,0.483-1.391,0.782-2.213,0.784c-0.834,0.003-1.587-0.296-2.247-0.775
					c-0.154-0.112-0.303-0.239-0.447-0.365c-0.131-0.121-0.258-0.249-0.382-0.379C91.212,320.06,90.469,318.52,90.05,317.228
					L90.05,317.228z M106.348,331.323l-4.298-0.039l0.023-2.356c0.004-0.245-0.198-0.449-0.442-0.448h-0.004
					c-0.245,0.001-0.446,0.198-0.449,0.442l-0.018,2.356l-11.622-0.111l0.024-2.351c-0.001-0.244-0.198-0.453-0.448-0.453l-0.004,0
					c-0.245,0.001-0.445,0.198-0.444,0.443l-0.024,2.354l-4.298-0.039c-0.367-0.003-0.683-0.142-0.888-0.39
					c-0.202-0.253-0.282-0.59-0.213-0.952l0.855-4.55c0.154-0.844,0.999-1.703,1.842-1.871l2.969-0.599l6.096,7.053
					c0.083,0.096,0.21,0.156,0.337,0.155h0.004c0.126,0,0.248-0.057,0.335-0.153l6.076-6.975l3.139,0.693
					c0.839,0.185,1.664,1.056,1.806,1.899l0.771,4.572c0.063,0.358-0.019,0.69-0.228,0.936c-0.204,0.244-0.519,0.382-0.877,0.383
					l0.001,0.445L106.348,331.323z M106.348,331.323"/>
			</g>
		</g>
		<g>
			<path d="M718.838,143.323c0.944-0.956,1.643-2.246,2.058-3.477c0.573-0.232,1.036-0.818,1.21-1.521
				c0.166-0.651,0.546-2.175-0.293-2.643v-1.093c0.057-1.926-0.165-4.273-2.381-5.229c-0.179-0.468-0.214-0.875-0.218-0.953
				l-0.192-1.918l-1.363,1.285c-0.445,0.419-2.494,0.825-3.809,0.956l-0.629,0.096c-4.024,0.633-3.967,2.674-3.911,4.845
				c0.009,0.28,0.018,0.577,0.018,0.896l0.03,0.983c-0.603,0.397-0.743,1.341-0.402,2.735c0.17,0.695,0.66,1.281,1.192,1.442
				c0.258,0.708,0.948,2.36,2.154,3.596c-5.015,1.267-8.703,5.352-8.703,10.197v0.451h23.941v-0.451
				C727.541,148.675,723.853,144.59,718.838,143.323L718.838,143.323z M721.73,153.075v-2.338c0-0.249-0.201-0.45-0.446-0.45
				c-0.248,0-0.45,0.2-0.45,0.45v2.338h-10.529v-2.338c0-0.249-0.197-0.45-0.445-0.45c-0.249,0-0.446,0.2-0.446,0.45v2.338h-4.907
				c0.176-3.346,2.294-6.248,5.383-7.877l5.352,6.081c0.087,0.092,0.206,0.149,0.337,0.149c0.131,0,0.254-0.057,0.337-0.158
				l5.242-6.125c3.142,1.621,5.3,4.548,5.479,7.93H721.73z M714.614,144.712l-0.591,0.507l0.966,0.834l-0.703,2.779l-3.557-4.038
				c0.765-0.328,1.577-0.58,2.425-0.75C713.592,144.35,714.076,144.581,714.614,144.712L714.614,144.712z M717.981,144.048
				c0.818,0.158,1.595,0.403,2.333,0.708l-3.56,4.155l-0.726-2.858l0.97-0.834l-0.563-0.484
				C716.995,144.611,717.511,144.371,717.981,144.048L717.981,144.048z M710.887,139.028c-0.346,0.075-0.879-0.337-1.036-0.965
				c-0.162-0.642-0.266-1.673,0.083-1.769c0.101-0.031,0.21-0.009,0.314,0.048v-1.778c0-2.796-0.629-4.435,3.736-4.902l-0.039-0.013
				c0,0,3.443-0.349,4.347-1.201c0,0,0.026,0.721,0.393,1.512c2.014,0.808,2.268,2.673,2.211,4.605v1.778
				c0.105-0.057,0.214-0.083,0.314-0.053c0.35,0.096,0.167,1.171,0.005,1.809c-0.158,0.625-0.607,0.992-0.948,0.931
				c-0.445,1.35-1.319,3.062-2.56,4.059c-0.174,0.14-0.353,0.271-0.541,0.376c-0.297,0.174-0.612,0.298-0.939,0.371
				c-0.214,0.048-0.428,0.078-0.655,0.078c-0.227,0-0.445-0.03-0.66-0.078c-0.332-0.074-0.651-0.197-0.947-0.367
				c-0.188-0.11-0.371-0.236-0.547-0.376C712.189,142.108,711.328,140.409,710.887,139.028L710.887,139.028z M710.887,139.028"/>
		</g>
		<g>
			<g>
				<defs>
					<rect id="SVGID_9_" x="648.261" y="196.138" width="37.848" height="23.487"/>
				</defs>
				<clipPath id="SVGID_10_">
					<use xlink:href="#SVGID_9_"  overflow="visible"/>
				</clipPath>
				<path clip-path="url(#SVGID_10_)" d="M685.498,214.959l-0.433-2.443c-0.131-0.72-0.795-1.406-1.511-1.559l-2.154-0.454
					l-0.424-0.866c-0.035-0.074-0.096-0.126-0.166-0.17c0.353-0.49,0.642-1.049,0.851-1.608c0.403-0.144,0.804-0.502,0.918-0.97
					c0.157-0.616-0.009-1.167-0.389-1.407v-0.432c0.349-1.054,0.532-2.775-1.057-3.705c-0.712-0.415-1.299-0.433-1.744-0.289
					c-0.078-0.179,0.135-0.45,0.135-0.45c-0.367-0.013-0.559,0.183-0.638,0.293c-0.49-0.224-1.127-0.32-1.944-0.149
					c-2.635,0.55-2.963,3.997-2.473,4.736c-0.38,0.24-0.542,0.786-0.389,1.402c0.117,0.468,0.52,0.825,0.922,0.97
					c0.21,0.564,0.494,1.123,0.848,1.608c-0.07,0.044-0.131,0.101-0.166,0.17l-0.424,0.866l-2.15,0.454
					c-0.171,0.035-0.337,0.105-0.494,0.197l-1.367-0.289l-0.669-1.363c-0.035-0.078-0.105-0.135-0.179-0.179
					c0.58-0.752,1.04-1.638,1.376-2.53c0.591-0.209,1.18-0.738,1.35-1.419c0.232-0.909-0.008-1.718-0.571-2.071v-0.642
					c0.511-1.547,0.782-4.077-1.551-5.436c-1.045-0.611-1.914-0.651-2.565-0.436c-0.101-0.266,0.201-0.651,0.201-0.651
					c-0.538-0.018-0.818,0.266-0.935,0.433c-0.717-0.332-1.656-0.472-2.862-0.224c-3.857,0.809-4.347,5.867-3.639,6.969
					c-0.55,0.358-0.786,1.158-0.559,2.053c0.171,0.686,0.765,1.215,1.359,1.424c0.328,0.891,0.786,1.778,1.363,2.53
					c-0.075,0.048-0.14,0.101-0.174,0.179l-0.669,1.363l-1.368,0.284c-0.157-0.087-0.323-0.158-0.493-0.197l-2.15-0.45l-0.419-0.866
					c-0.039-0.074-0.101-0.131-0.17-0.174c0.353-0.485,0.642-1.045,0.851-1.604c0.403-0.149,0.804-0.502,0.923-0.97
					c0.152-0.616-0.009-1.171-0.394-1.407v-0.436c0.35-1.054,0.534-2.775-1.052-3.701c-0.712-0.415-1.299-0.433-1.744-0.289
					c-0.078-0.179,0.135-0.45,0.135-0.45c-0.367-0.013-0.559,0.183-0.638,0.293c-0.49-0.227-1.127-0.32-1.948-0.149
					c-2.631,0.55-2.958,3.993-2.473,4.736c-0.38,0.24-0.542,0.786-0.389,1.402c0.117,0.468,0.525,0.825,0.926,0.97
					c0.21,0.559,0.494,1.118,0.848,1.608c-0.07,0.044-0.131,0.096-0.167,0.17l-0.418,0.866l-2.154,0.45
					c-0.721,0.153-1.386,0.843-1.512,1.564l-0.436,2.443c-0.07,0.389,0.03,0.782,0.271,1.066c0.24,0.289,0.607,0.454,1,0.454h7.152
					l-0.14,0.783c-0.092,0.523,0.035,1.018,0.353,1.398c0.314,0.379,0.782,0.589,1.311,0.589h17.318c0.52,0,1.001-0.215,1.315-0.589
					c0.314-0.38,0.442-0.875,0.35-1.398l-0.14-0.783h7.151c0.398,0,0.765-0.166,1.005-0.454
					C685.472,215.741,685.567,215.353,685.498,214.959L685.498,214.959z M681.684,214.002c-0.249,0-0.446,0.201-0.446,0.446v1.14
					h-4.325l-0.341-1.913c-0.17-0.966-1.048-1.883-2.004-2.106l0.738-0.158l2.246,1.297c0.065,0.039,0.143,0.062,0.223,0.062
					c0.044,0,0.087-0.009,0.131-0.018c0.117-0.039,0.218-0.122,0.271-0.236l0.158-0.319l0.157,0.319
					c0.057,0.114,0.153,0.197,0.275,0.236c0.04,0.013,0.084,0.018,0.128,0.018c0.078,0,0.157-0.022,0.227-0.062l2.241-1.297
					l2.005,0.424c0.362,0.074,0.752,0.476,0.816,0.843l0.433,2.438c0.021,0.135,0,0.253-0.074,0.336
					c-0.07,0.087-0.185,0.132-0.315,0.132h-2.097v-1.136C682.129,214.199,681.932,214.002,681.684,214.002L681.684,214.002z
					 M676.332,217.423c0.048,0.254-0.009,0.49-0.153,0.664c-0.149,0.17-0.371,0.266-0.63,0.266h-3.285v-1.879
					c0-0.003-0.004-0.008-0.004-0.017c-0.009-0.24-0.206-0.428-0.445-0.428c-0.101,0-0.192,0.044-0.272,0.096
					c-0.104,0.083-0.174,0.206-0.174,0.349v1.879h-8.952v-1.879c0-0.14-0.069-0.266-0.174-0.344
					c-0.078-0.057-0.17-0.101-0.271-0.101c-0.245,0-0.437,0.192-0.446,0.428c0,0.009-0.004,0.013-0.004,0.017v1.879h-3.285
					c-0.262,0-0.485-0.092-0.63-0.266c-0.143-0.174-0.2-0.41-0.152-0.664l0.166-0.944l0.083-0.445l0.079-0.45l0.31-1.753
					c0.114-0.616,0.747-1.275,1.363-1.407l1.507-0.314l0.494-0.105l0.476-0.101l0.559-0.117c0.012,0.009,0.021,0.022,0.039,0.03
					l3.316,1.923c0.069,0.039,0.148,0.057,0.223,0.057c0.044,0,0.092-0.004,0.131-0.018c0.119-0.035,0.218-0.122,0.271-0.232
					l0.424-0.865l0.419,0.865c0.057,0.11,0.153,0.197,0.271,0.232c0.044,0.013,0.087,0.018,0.132,0.018
					c0.078,0,0.157-0.018,0.223-0.057l3.316-1.923c0.017-0.008,0.026-0.021,0.039-0.03l0.559,0.117l0.477,0.101l0.493,0.105
					l1.508,0.314c0.615,0.132,1.254,0.791,1.362,1.407l0.311,1.753l0.083,0.45l0.078,0.445L676.332,217.423z M652.102,214.002
					c-0.249,0-0.451,0.201-0.451,0.446v1.14h-2.093c-0.131,0-0.245-0.048-0.319-0.135c-0.07-0.083-0.096-0.2-0.074-0.332
					l0.436-2.442c0.066-0.367,0.454-0.769,0.818-0.843l2.001-0.424l2.246,1.297c0.069,0.044,0.148,0.062,0.223,0.062
					c0.048,0,0.092-0.005,0.131-0.018c0.117-0.035,0.218-0.122,0.271-0.232l0.158-0.323l0.161,0.323
					c0.053,0.11,0.153,0.197,0.271,0.232c0.045,0.013,0.088,0.018,0.132,0.018c0.078,0,0.157-0.018,0.223-0.062l2.246-1.297
					l0.738,0.158c-0.961,0.227-1.84,1.14-2.01,2.106l-0.341,1.913h-4.32v-1.135C652.547,214.199,652.346,214.002,652.102,214.002
					L652.102,214.002z M657.685,210.839l-0.516,0.298l-0.965,0.559l-0.183-0.376l0.541-0.314l0.58-0.332l0.359-0.21l0.152,0.315
					L657.685,210.839z M653.399,210.463l0.358,0.21l0.582,0.332l0.541,0.314l-0.183,0.376l-0.965-0.559l-0.516-0.298l0.03-0.06
					L653.399,210.463z M663.64,210.63l0.149-0.302l0.344,0.197l0.577,0.337l0.582,0.337l1.039,0.598l-0.454,0.931l-2.093-1.215
					l-0.446-0.258l0.053-0.117L663.64,210.63z M670.39,211.136l0.057,0.117l-0.45,0.258l-2.094,1.215l-0.45-0.931l1.04-0.598
					l0.576-0.337l0.582-0.337l0.341-0.197l0.148,0.302L670.39,211.136z M680.565,210.839l-0.511,0.298l-0.97,0.559l-0.183-0.376
					l0.546-0.314l0.576-0.332l0.359-0.21l0.152,0.315L680.565,210.839z M676.284,210.463l0.358,0.21l0.577,0.332l0.546,0.314
					l-0.183,0.376l-0.97-0.559l-0.511-0.298l0.026-0.06L676.284,210.463z M675.427,207.366c-0.214,0.048-0.708-0.218-0.804-0.612
					c-0.101-0.397-0.005-0.768,0.21-0.83c0.065-0.018,0.131-0.005,0.201,0.035v-0.598c0,0,0,0,0-0.004s0-0.018,0-0.026v-0.206
					c0.051-0.502,0.528-1.455,3.15-0.598c0.9,0.296,1.455-0.171,1.735-0.795c0.891,0.096,1.49,1.11,1.717,1.735v0.493
					c0.065-0.039,0.131-0.053,0.197-0.035c0.214,0.061,0.31,0.433,0.209,0.83c-0.096,0.389-0.585,0.655-0.8,0.612
					c-0.257,0.786-0.747,1.769-1.437,2.398c-0.131,0.123-0.271,0.228-0.419,0.315c-0.174,0.108-0.358,0.192-0.55,0.248
					c-0.162,0.044-0.328,0.07-0.502,0.07c-0.171,0-0.337-0.027-0.499-0.07c-0.2-0.056-0.388-0.135-0.563-0.244
					c-0.153-0.092-0.302-0.206-0.437-0.332C676.156,209.126,675.681,208.166,675.427,207.366L675.427,207.366z M662.622,206.073
					c-0.314,0.065-1.036-0.328-1.18-0.9c-0.149-0.582-0.009-1.127,0.31-1.219c0.093-0.021,0.192-0.004,0.289,0.048v-0.874
					c0.004-0.004,0.004-0.004,0.004-0.009c0-0.009,0-0.026-0.004-0.039v-0.302c0.079-0.738,0.778-2.141,4.631-0.878
					c1.324,0.433,2.145-0.253,2.556-1.167c1.306,0.144,2.18,1.63,2.517,2.543v0.725c0.048-0.026,0.096-0.044,0.144-0.053
					c0,0.004,0,0.018,0,0.022c0.009,0.012,0.026,0.004,0.053-0.018c0.03-0.004,0.062-0.009,0.092,0
					c0.319,0.092,0.458,0.638,0.314,1.219c-0.144,0.568-0.86,0.961-1.175,0.9c-0.48,1.467-1.52,3.408-3.019,4.146
					c-0.393,0.192-0.809,0.31-1.258,0.31c-0.458,0-0.878-0.117-1.272-0.305C664.125,209.493,663.106,207.58,662.622,206.073
					L662.622,206.073z M652.543,207.366c-0.214,0.048-0.703-0.218-0.8-0.612c-0.101-0.397-0.009-0.768,0.21-0.83
					c0.065-0.018,0.131-0.005,0.197,0.035v-0.598c0,0,0,0,0.003-0.004c0-0.004-0.003-0.018-0.003-0.026v-0.206
					c0.052-0.502,0.528-1.455,3.15-0.598c0.905,0.296,1.455-0.171,1.739-0.795c0.891,0.096,1.485,1.11,1.712,1.735v0.493
					c0.066-0.039,0.135-0.053,0.197-0.035c0.218,0.061,0.314,0.433,0.214,0.83c-0.096,0.389-0.585,0.655-0.8,0.612
					c-0.257,0.786-0.747,1.769-1.437,2.398c-0.131,0.123-0.271,0.228-0.419,0.315c-0.174,0.108-0.358,0.192-0.55,0.244
					c-0.162,0.048-0.328,0.075-0.507,0.075c-0.171,0-0.337-0.027-0.494-0.07c-0.2-0.056-0.388-0.135-0.567-0.244
					c-0.153-0.092-0.298-0.206-0.433-0.332C653.276,209.126,652.801,208.166,652.543,207.366L652.543,207.366z M652.543,207.366"/>
			</g>
		</g>
		<g>
			<path d="M663.61,290.494v-9.773c0-7.497-3.963-10.341-8.851-10.341c-4.889,0-8.851,2.844-8.851,10.341v9.773
				c-1.428,1.87-2.285,4.199-2.285,6.729v0.445h22.273v-0.445C665.895,294.693,665.035,292.364,663.61,290.494L663.61,290.494z
				 M644.527,296.778c0.092-2.08,0.803-3.994,1.957-5.575c0.624-0.86,1.389-1.616,2.249-2.246l1.975,2.246l3.793,4.308
				c0.087,0.096,0.205,0.152,0.336,0.152h0.004c0.128-0.003,0.249-0.056,0.337-0.157l3.679-4.304l1.923-2.25
				c0.86,0.63,1.625,1.386,2.254,2.25c1.154,1.577,1.866,3.495,1.957,5.571L644.527,296.778z M649.748,280.469
				c2.748,0,5.146-1.15,6.466-2.867c0.952,1.245,2.477,2.193,4.295,2.617v1.061c0.113-0.065,0.232-0.092,0.344-0.061
				c0.376,0.114,0.542,0.804,0.367,1.542c-0.165,0.717-1.018,1.21-1.389,1.136c-0.289,0.931-0.86,1.914-1.559,2.766
				c-0.101,0.126-0.201,0.244-0.306,0.358c-0.117,0.131-0.236,0.249-0.353,0.367c0.856,0.254,1.669,0.616,2.42,1.07l-2.351,2.744
				l-1.786,2.084l-0.455-2.084l-0.223-1.031l0.852-0.851l-1.311-1.311l-1.311,1.311l0.852,0.851l-0.223,1.031l-0.433,1.98
				l-1.744-1.98l-2.42-2.744c0.747-0.45,1.547-0.812,2.395-1.061c-0.119-0.119-0.232-0.24-0.346-0.367
				c-0.104-0.119-0.205-0.236-0.305-0.359c-0.686-0.847-1.24-1.83-1.529-2.778c-0.371,0.087-1.228-0.41-1.398-1.136
				c-0.171-0.738-0.009-1.428,0.367-1.538c0.113-0.035,0.232-0.008,0.344,0.057v-0.756L649.748,280.469z M649.748,280.469"/>
		</g>
		<g>
			<path d="M742.426,314.044h-10.783l3.906-3.906l-1.222-1.219h1.756l-2.202-2.202C738.8,307.198,742.426,309.071,742.426,314.044
				L742.426,314.044z M727.357,308.919h-1.756l2.202-2.202c-4.924,0.481-8.546,2.354-8.546,7.327h10.783l-3.902-3.906
				L727.357,308.919z M735.23,298.783c-0.161,2.184-1.092,4.741-2.434,6.108h5.182v-5.776c0-6.042-3.198-8.336-7.135-8.336
				c-3.94,0-7.138,2.294-7.138,8.336v5.776h5.181c-1.297-1.323-2.219-3.757-2.42-5.898h0.053c2.224,0,4.151-0.922,5.212-2.285
				C732.5,297.704,733.745,298.446,735.23,298.783L735.23,298.783z M735.23,298.783"/>
		</g>
		<g>
			<path d="M633.802,386.906c-0.068-0.423,0.079-0.796,0.328-0.835c0.022-0.006,0.039,0.006,0.056,0.006
				c-0.108-3.015,1.671-4.398,3.658-4.409c1.931,0.051,3.46,1.187,3.534,4.409c0.017,0,0.029-0.012,0.051-0.006
				c0.249,0.039,0.396,0.412,0.328,0.835c-0.068,0.396-0.317,0.684-0.559,0.672c-0.525,1.948-2.123,3.388-3.415,3.444
				c-1.424-0.029-2.823-1.496-3.365-3.456c-0.012,0.006-0.017,0.012-0.029,0.017C634.135,387.623,633.87,387.318,633.802,386.906
				L633.802,386.906z M610.622,381.661c0.062,0,0.118,0.006,0.181,0.006c0.023,0,0.039-0.006,0.062-0.006H610.622z M637.81,391.022
				c-0.01,0-0.022,0-0.027,0c-0.012,0-0.017,0-0.029,0H637.81z M637.664,381.661c0.062,0,0.119,0.006,0.181,0.006
				c0.022,0,0.039-0.006,0.062-0.006H637.664z M610.768,391.022c-0.004,0-0.016,0-0.027,0c-0.006,0-0.017,0-0.023,0H610.768z
				 M628.62,383.31c-0.158,2.174-1.084,4.714-2.422,6.074h5.149v-5.742c0.006-6.006-3.174-8.287-7.086-8.287
				c-3.918,0-7.096,2.281-7.096,8.287v5.742h5.149c-1.288-1.315-2.202-3.737-2.405-5.86l0.051-0.006
				c2.213,0,4.126-0.919,5.177-2.269C625.91,382.238,627.141,382.977,628.62,383.31L628.62,383.31z M645.85,396.622
				c0-3.275-2.253-4.617-5.392-5.041l-1.806,3.534l-0.288-2.298l0.452-0.361h-2.072l0.452,0.361l-0.289,2.298l-1.807-3.534
				c-1.111,0.152-2.111,0.428-2.935,0.851c-1.36-0.671-3.026-1.049-4.883-1.236l2.185,2.191h-1.744l1.214,1.213l-3.879,3.879h10.715
				c0-0.678-0.074-1.293-0.202-1.863h10.28V396.622z M607.353,387.584c0.006-0.006,0.012-0.012,0.023-0.017
				c0.542,1.96,1.942,3.427,3.365,3.456c1.298-0.056,2.89-1.502,3.421-3.45c0.243,0.017,0.486-0.27,0.554-0.666
				c0.074-0.423-0.074-0.796-0.328-0.835c-0.016-0.006-0.033,0.006-0.051,0.006c-0.074-3.223-1.603-4.359-3.534-4.409
				c-1.987,0.012-3.766,1.395-3.652,4.409c-0.023,0-0.04-0.012-0.058-0.006c-0.247,0.039-0.4,0.412-0.327,0.835
				C606.834,387.318,607.093,387.623,607.353,387.584L607.353,387.584z M620.795,393.388h-1.744l2.185-2.191
				c-1.853,0.181-3.523,0.565-4.878,1.236c-0.831-0.428-1.824-0.699-2.941-0.851l-1.802,3.534l-0.293-2.298l0.452-0.367h-2.072
				l0.447,0.367l-0.283,2.298l-1.807-3.534c-3.138,0.423-5.391,1.766-5.391,5.035h10.28c-0.13,0.569-0.202,1.185-0.202,1.863h10.715
				l-3.879-3.879L620.795,393.388z M620.795,393.388"/>
		</g>
		<g>
			<path d="M210.187,384.717c-0.476-7.48-3.963-10.341-8.847-10.341c-4.889,0-8.376,2.861-8.851,10.341
				c-0.267,4.142-0.249,10.761-1.84,13.22h21.377C210.659,396.224,210.453,388.858,210.187,384.717L210.187,384.717z
				 M207.797,386.752c-0.17,0.717-1.018,1.215-1.389,1.141c-0.721,2.333-3.225,5.033-5.072,5.033c-1.901,0-4.334-2.64-5.06-5.038
				c-0.371,0.087-1.227-0.41-1.398-1.136c-0.174-0.738-0.009-1.424,0.367-1.538c0.114-0.035,0.227-0.009,0.346,0.057v-0.752
				l0.738-0.057c2.761,0,5.152-1.171,6.466-2.897c0.948,1.25,2.473,2.193,4.295,2.622v1.084c0.114-0.062,0.231-0.092,0.346-0.057
				C207.806,385.328,207.971,386.018,207.797,386.752L207.797,386.752z M207.797,386.752"/>
		</g>
		<g>
			<path fill="#233264" d="M327.871,563.023l-8.05-24.284v24.284h-12.947V511.1h14.557c6.395,0,11.002,1.107,13.819,3.321
				c2.818,2.214,4.27,5.982,4.36,11.304c0.134,5.501-2.326,10.264-7.379,14.289l8.989,23.01H327.871z M319.821,521.833v11.136
				c2.459,0,4.562-0.604,6.306-1.811c1.744-1.208,2.616-2.727,2.616-4.562c0-2.057-1.051-3.443-3.153-4.159
				C324.383,522.035,322.459,521.833,319.821,521.833z"/>
			<path fill="#233264" d="M356.583,518.345h-11.069V511.1h11.069V518.345z M356.583,563.023h-11.069v-40.787h11.069V563.023z"/>
			<path fill="#F8BA04" d="M373.017,511.41h-11.069v-8.404h11.069V511.41z M373.017,563.236h-11.069v-47.313h11.069V563.236z"/>
			<path fill="#233264" d="M389.452,518.345h-11.069V511.1h11.069V518.345z M389.452,563.023h-11.069v-40.787h11.069V563.023z"/>
			<path fill="#233264" d="M423.597,563.023h-11.069v-20.393c0-8.005-1.096-12.008-3.287-12.008c-2.237,0-3.354,4.003-3.354,12.008
				v20.393h-11.069v-40.787l5.971,2.415c2.236-2.236,5.053-3.354,8.453-3.354c4.874,0,8.453,1.409,10.733,4.226
				c2.415,2.997,3.623,7.782,3.623,14.356V563.023z"/>
			<path fill="#233264" d="M458.01,571.475c0,2.684-1.006,4.763-3.019,6.239c-1.744,1.252-3.958,1.878-6.641,1.878
				c-3.176,0-6.083-0.604-8.721-1.811v-9.593c0.857,0.134,1.625,0.201,2.302,0.201c3.34,0,5.01-1.476,5.01-4.428v-0.872h-0.337
				c-6.463,0-11.198-1.409-14.204-4.226c-3.142-2.996-4.736-7.804-4.78-14.423c-0.089-9.167,2.952-15.54,9.123-19.119
				c4.606-2.683,11.695-4.025,21.266-4.025V571.475z M446.942,553.43v-21.601c-2.455,0.448-4.444,1.834-5.967,4.159
				c-1.523,2.326-2.284,5.144-2.284,8.453c0,3.668,0.841,6.195,2.523,7.581C442.396,552.96,444.304,553.43,446.942,553.43z"/>
			<path fill="#233264" d="M508.86,563.023h-11.069v-20.393c0-8.005-1.096-12.008-3.287-12.008c-2.013,0-3.019,4.003-3.019,12.008
				v20.393h-11.404v-20.393c0-8.005-0.984-12.008-2.952-12.008c-2.237,0-3.354,4.003-3.354,12.008v20.393h-11.069v-40.787
				l5.97,2.415c2.236-2.236,5.053-3.354,8.453-3.354c3.667,0,6.551,1.207,8.654,3.622c2.415-2.415,5.322-3.622,8.721-3.622
				c4.964,0,8.564,1.409,10.8,4.226c2.37,2.997,3.556,7.983,3.556,14.96V563.023z"/>
			<path fill="#233264" d="M541.127,544.105l-15.631,3.891c0.939,4.115,3.019,6.172,6.239,6.172c1.565,0,3.287-0.559,5.165-1.677
				v9.593c-2.997,1.207-5.792,1.811-8.385,1.811c-4.741,0-8.587-2.056-11.538-6.172c-2.908-3.98-4.36-9.011-4.36-15.094
				c0-6.306,1.207-11.359,3.622-15.161c2.549-4.114,6.148-6.172,10.8-6.172c4.472,0,7.983,2.058,10.532,6.172
				c2.37,3.847,3.556,8.9,3.556,15.161V544.105z M530.601,538.429c-0.449-5.205-1.546-7.808-3.292-7.808
				c-2.017,0-3.024,3.081-3.024,9.242L530.601,538.429z"/>
		</g>
	</g>
</g>
</svg>
