<?xml version="1.0" encoding="utf-8"?>
<!-- Generator: Adobe Illustrator 18.1.0, SVG Export Plug-In . SVG Version: 6.00 Build 0)  -->
<svg version="1.1" id="Capa_1" xmlns="http://www.w3.org/2000/svg" xmlns:xlink="http://www.w3.org/1999/xlink" x="0px" y="0px"
	 viewBox="0 0 850.39 1417.32" enable-background="new 0 0 850.39 1417.32" xml:space="preserve">
<g>
	<polygon fill="#FFFFFF" points="714.523,678.806 426.722,884.024 138.92,678.806 44.613,611.559 44.613,1051.289 808.858,1051.289 
		808.858,611.559 	"/>
	<path fill="#FFFFFF" d="M125.818,651.252l287.775,205.107c3.917,2.813,8.523,4.221,13.13,4.221c4.607,0,9.213-1.434,13.157-4.221
		l287.802-205.163c5.986-4.276,9.516-11.143,9.516-18.48V444.654c-0.056-12.522-10.178-22.674-22.673-22.674H138.92
		c-12.495,0-22.591,10.15-22.591,22.674v188.117C116.329,640.108,119.86,646.975,125.818,651.252z M161.565,467.271h530.313v153.832
		L426.694,810.157L161.565,621.103V467.271z"/>
	<path fill="#FFFFFF" d="M251.1,564.117h336.983c13.599,0,24.604-11.061,24.604-24.659s-11.005-24.576-24.604-24.576H251.1
		c-13.599,0-24.604,10.978-24.604,24.576S237.502,564.117,251.1,564.117z"/>
	<path fill="#FFFFFF" d="M612.687,624.965c0-13.544-11.005-24.576-24.604-24.576H251.1c-13.599,0-24.604,11.005-24.604,24.576
		c0,13.627,11.005,24.605,24.604,24.605h336.983C601.682,649.568,612.687,638.618,612.687,624.965z"/>
</g>
</svg>
