<?xml version="1.0" encoding="utf-8"?>
<!-- Generator: Adobe Illustrator 18.1.0, SVG Export Plug-In . SVG Version: 6.00 Build 0)  -->
<svg version="1.1" id="Capa_1" xmlns="http://www.w3.org/2000/svg" xmlns:xlink="http://www.w3.org/1999/xlink" x="0px" y="0px"
	 viewBox="-169 453.32 512 512" enable-background="new -169 453.32 512 512" xml:space="preserve">
<path fill="#FFFFFF" d="M263,453.32h-384c-26.4,0-48,21.6-48,48v416c0,26.4,21.6,48,48,48h384c26.4,0,48-21.6,48-48v-416
	C311,474.92,289.4,453.32,263,453.32z M247,901.32h-352v-384h352V901.32z M-41,741.32h224v32H-41V741.32z M-41,805.32h224v32H-41
	V805.32z M-9,597.32c0,26.51,21.49,48,48,48s48-21.49,48-48s-21.49-48-48-48S-9,570.81-9,597.32z M71,645.32H7
	c-26.4,0-48,14.4-48,32v32h160v-32C119,659.72,97.4,645.32,71,645.32z"/>
</svg>
